<svg width="6" height="6" viewBox="0 0 6 6" fill="none" xmlns="http://www.w3.org/2000/svg">
<path fill-rule="evenodd" clip-rule="evenodd" d="M3.00038 3.98616L4.94236 5.85739C5.13718 6.04656 5.26394 6.0485 5.46232 5.85739L5.85195 5.48188C6.04283 5.298 6.05577 5.1773 5.85195 4.98089L3.79596 3.00008L5.85214 1.01926C6.0447 0.833088 6.04845 0.707445 5.85214 0.518098L5.4625 0.142758C5.26037 -0.0520592 5.13549 -0.0430595 4.94255 0.142758L3.00038 2.01399L1.0584 0.142934C0.865455 -0.0428831 0.740577 -0.0518828 0.538447 0.142934L0.148813 0.518275C-0.0476919 0.707622 -0.0441294 0.833265 0.148813 1.01943L2.2048 3.00008L0.148813 4.98089C-0.0550046 5.1773 -0.0441294 5.298 0.148813 5.48188L0.53826 5.85739C0.734952 6.0485 0.861705 6.04656 1.05821 5.85739L3.00038 3.98616Z" fill="white"/>
</svg>
